<mxfile host="app.diagrams.net" modified="2022-03-03T07:16:16.904Z" agent="5.0 (Macintosh; Intel Mac OS X 10_15_7) AppleWebKit/537.36 (KHTML, like Gecko) Chrome/98.0.4758.109 Safari/537.36" etag="OTX3g32m2vrwo2z_lcmn" version="16.6.5" type="github">
  <diagram id="bMfHXcnNPN3_OucriJFl" name="Page-1">
    <mxGraphModel dx="1140" dy="571" grid="1" gridSize="10" guides="1" tooltips="1" connect="1" arrows="1" fold="1" page="1" pageScale="1" pageWidth="850" pageHeight="1100" background="none" math="0" shadow="0">
      <root>
        <mxCell id="0" />
        <mxCell id="1" parent="0" />
        <mxCell id="-SGei8ItMMGrmaWpwYBP-245" value="IBM Cloud" style="shape=mxgraph.ibm.box;prType=cloud;fontStyle=0;verticalAlign=top;align=left;spacingLeft=32;spacingTop=4;fillColor=none;rounded=0;whiteSpace=wrap;html=1;strokeColor=#4376BB;strokeWidth=3;dashed=0;container=0;spacing=-4;collapsible=0;expand=0;recursiveResize=0;fontSize=12;fontColor=#000000;" parent="1" vertex="1">
          <mxGeometry x="10" y="170" width="950" height="878" as="geometry" />
        </mxCell>
        <mxCell id="-SGei8ItMMGrmaWpwYBP-246" value="Tokyo" style="shape=mxgraph.ibm.box;prType=region;fontStyle=0;verticalAlign=top;align=left;spacingLeft=32;spacingTop=4;fillColor=none;rounded=0;whiteSpace=wrap;html=1;strokeColor=#919191;strokeWidth=2;dashed=0;container=0;spacing=-4;collapsible=0;expand=0;recursiveResize=0;fontSize=12;fontColor=#000000;" parent="1" vertex="1">
          <mxGeometry x="20" y="200" width="930" height="840" as="geometry" />
        </mxCell>
        <mxCell id="-SGei8ItMMGrmaWpwYBP-248" value="VPC" style="shape=mxgraph.ibm.box;prType=vpc;fontStyle=0;verticalAlign=top;align=left;spacingLeft=32;spacingTop=4;fillColor=none;rounded=0;whiteSpace=wrap;html=1;strokeColor=#4376BB;strokeWidth=2;dashed=0;container=1;spacing=-4;collapsible=0;expand=0;recursiveResize=0;horizontal=1;" parent="1" vertex="1">
          <mxGeometry x="30" y="230" width="720" height="800" as="geometry" />
        </mxCell>
        <mxCell id="ziAIK8e2hK0k-ULHB1On-2" value="Zone-2" style="shape=mxgraph.ibm.box;prType=zone;fontStyle=0;verticalAlign=top;align=left;spacingLeft=32;spacingTop=4;fillColor=none;rounded=0;whiteSpace=wrap;html=1;strokeColor=#000000;strokeWidth=1;dashed=0;container=1;spacing=-4;collapsible=0;expand=0;recursiveResize=0;" vertex="1" parent="-SGei8ItMMGrmaWpwYBP-248">
          <mxGeometry x="370" y="30" width="340" height="580" as="geometry" />
        </mxCell>
        <mxCell id="ziAIK8e2hK0k-ULHB1On-80" value="UAT DB Subnet" style="shape=mxgraph.ibm.box;prType=subnet;fontStyle=0;verticalAlign=top;align=left;spacingLeft=32;spacingTop=4;fillColor=#E6F0E2;rounded=0;whiteSpace=wrap;html=1;strokeColor=#00882B;strokeWidth=1;dashed=0;container=1;spacing=-4;collapsible=0;expand=0;recursiveResize=0;shadow=0;labelBackgroundColor=none;labelBorderColor=none;fontColor=#000000;" vertex="1" parent="ziAIK8e2hK0k-ULHB1On-2">
          <mxGeometry x="20" y="369" width="300" height="200" as="geometry" />
        </mxCell>
        <mxCell id="ziAIK8e2hK0k-ULHB1On-81" value="UAT Mysql DB" style="fontStyle=0;verticalAlign=top;align=center;spacingTop=-2;fillColor=none;rounded=0;whiteSpace=wrap;html=1;strokeColor=#FF0000;strokeWidth=2;dashed=1;container=1;collapsible=0;expand=0;recursiveResize=0;shadow=0;labelBackgroundColor=none;labelBorderColor=none;fontColor=#000000;" vertex="1" parent="ziAIK8e2hK0k-ULHB1On-80">
          <mxGeometry x="10" y="30" width="280" height="160" as="geometry" />
        </mxCell>
        <mxCell id="ziAIK8e2hK0k-ULHB1On-82" value="" style="aspect=fixed;perimeter=ellipsePerimeter;html=1;align=center;shadow=0;dashed=0;fontColor=#4277BB;labelBackgroundColor=#ffffff;fontSize=12;spacingTop=3;image;image=img/lib/ibm/data/data_services.svg;labelBorderColor=none;strokeColor=#000000;fillColor=none;" vertex="1" parent="ziAIK8e2hK0k-ULHB1On-81">
          <mxGeometry x="50" y="31" width="120" height="120" as="geometry" />
        </mxCell>
        <mxCell id="ziAIK8e2hK0k-ULHB1On-92" value="FIP" style="aspect=fixed;perimeter=ellipsePerimeter;html=1;align=center;shadow=0;dashed=0;fontColor=#4277BB;labelBackgroundColor=#ffffff;fontSize=10;spacingTop=2;image;image=img/lib/ibm/vpc/FloatingIP.svg;labelBorderColor=none;strokeColor=#000000;fillColor=none;horizontal=1;verticalAlign=bottom;labelPosition=center;verticalLabelPosition=top;spacing=-20;" vertex="1" parent="ziAIK8e2hK0k-ULHB1On-81">
          <mxGeometry x="170" y="61" width="60" height="60" as="geometry" />
        </mxCell>
        <mxCell id="ziAIK8e2hK0k-ULHB1On-84" value="" style="endArrow=classic;startArrow=classic;html=1;rounded=0;fontColor=#000000;strokeWidth=2;" edge="1" parent="ziAIK8e2hK0k-ULHB1On-2">
          <mxGeometry width="50" height="50" relative="1" as="geometry">
            <mxPoint x="166" y="375" as="sourcePoint" />
            <mxPoint x="166" y="315" as="targetPoint" />
          </mxGeometry>
        </mxCell>
        <object label="UAT Public&#xa;Load Balancer" placeholders="1" fgdfgdfgd="" id="ziAIK8e2hK0k-ULHB1On-97">
          <mxCell style="aspect=fixed;perimeter=ellipsePerimeter;align=left;shadow=0;dashed=0;fontColor=#000000;labelBackgroundColor=none;fontSize=12;spacingTop=-58;image;image=img/lib/ibm/vpc/LoadBalancer.svg;strokeColor=#999999;fillColor=none;opacity=80;labelBorderColor=none;whiteSpace=wrap;textDirection=ltr;verticalAlign=top;horizontal=1;direction=east;labelPosition=right;verticalLabelPosition=bottom;spacing=10;spacingBottom=6;spacingRight=5;" vertex="1" parent="ziAIK8e2hK0k-ULHB1On-2">
            <mxGeometry x="120" y="20" width="80" height="80" as="geometry" />
          </mxCell>
        </object>
        <mxCell id="ziAIK8e2hK0k-ULHB1On-25" value="" style="group" vertex="1" connectable="0" parent="ziAIK8e2hK0k-ULHB1On-2">
          <mxGeometry x="10" y="166" width="320" height="150" as="geometry" />
        </mxCell>
        <mxCell id="ziAIK8e2hK0k-ULHB1On-26" value="" style="group" vertex="1" connectable="0" parent="ziAIK8e2hK0k-ULHB1On-25">
          <mxGeometry width="320.00000000000006" height="149.99999999999997" as="geometry" />
        </mxCell>
        <mxCell id="ziAIK8e2hK0k-ULHB1On-27" value="&lt;font color=&quot;#000000&quot;&gt;Web Subnet-2&lt;/font&gt;" style="shape=mxgraph.ibm.box;prType=subnet;fontStyle=0;verticalAlign=top;align=left;spacingLeft=32;spacingTop=4;fillColor=#E6F0E2;rounded=0;whiteSpace=wrap;html=1;strokeColor=#00882B;strokeWidth=1;dashed=0;container=1;spacing=-4;collapsible=0;expand=0;recursiveResize=0;fontSize=12;fontColor=#FFFFFF;" vertex="1" parent="ziAIK8e2hK0k-ULHB1On-26">
          <mxGeometry width="320.00000000000006" height="149.99999999999997" as="geometry" />
        </mxCell>
        <mxCell id="ziAIK8e2hK0k-ULHB1On-48" value="" style="fontStyle=0;verticalAlign=top;align=center;spacingTop=-2;fillColor=none;rounded=0;whiteSpace=wrap;html=1;strokeColor=#FF0000;strokeWidth=2;dashed=1;container=1;collapsible=0;expand=0;recursiveResize=0;shadow=0;labelBackgroundColor=none;labelBorderColor=none;fontColor=#000000;" vertex="1" parent="ziAIK8e2hK0k-ULHB1On-27">
          <mxGeometry x="5" y="30" width="310" height="110" as="geometry" />
        </mxCell>
        <mxCell id="ziAIK8e2hK0k-ULHB1On-28" value="Dev VSI-2" style="aspect=fixed;perimeter=ellipsePerimeter;html=1;align=center;shadow=0;dashed=0;fontColor=#4277BB;labelBackgroundColor=#ffffff;fontSize=12;spacingTop=3;image;image=img/lib/ibm/vpc/Instance.svg;strokeColor=#0000FF;fillColor=#B3B3B3;" vertex="1" parent="ziAIK8e2hK0k-ULHB1On-48">
          <mxGeometry x="10" y="26.5" width="84.42" height="67.54" as="geometry" />
        </mxCell>
        <mxCell id="ziAIK8e2hK0k-ULHB1On-96" value="FIP" style="aspect=fixed;perimeter=ellipsePerimeter;html=1;align=center;shadow=0;dashed=0;fontColor=#4277BB;labelBackgroundColor=#ffffff;fontSize=10;spacingTop=2;image;image=img/lib/ibm/vpc/FloatingIP.svg;labelBorderColor=none;strokeColor=#000000;fillColor=none;horizontal=1;verticalAlign=bottom;labelPosition=center;verticalLabelPosition=top;spacing=-20;" vertex="1" parent="ziAIK8e2hK0k-ULHB1On-48">
          <mxGeometry x="234.76" y="31.75" width="69.24" height="69.24" as="geometry" />
        </mxCell>
        <mxCell id="ziAIK8e2hK0k-ULHB1On-95" value="FIP" style="aspect=fixed;perimeter=ellipsePerimeter;html=1;align=center;shadow=0;dashed=0;fontColor=#4277BB;labelBackgroundColor=#ffffff;fontSize=10;spacingTop=2;image;image=img/lib/ibm/vpc/FloatingIP.svg;labelBorderColor=none;strokeColor=#000000;fillColor=none;horizontal=1;verticalAlign=bottom;labelPosition=center;verticalLabelPosition=top;spacing=-20;" vertex="1" parent="ziAIK8e2hK0k-ULHB1On-26">
          <mxGeometry x="88.38" y="61.129999999999995" width="69.24" height="69.24" as="geometry" />
        </mxCell>
        <mxCell id="ziAIK8e2hK0k-ULHB1On-29" value="UAT VSI-2" style="aspect=fixed;perimeter=ellipsePerimeter;html=1;align=center;shadow=0;dashed=0;fontColor=#4277BB;labelBackgroundColor=#ffffff;fontSize=12;spacingTop=3;image;image=img/lib/ibm/vpc/Instance.svg;strokeColor=#0000FF;fillColor=#B3B3B3;" vertex="1" parent="ziAIK8e2hK0k-ULHB1On-26">
          <mxGeometry x="170" y="60.25" width="81.25" height="65" as="geometry" />
        </mxCell>
        <mxCell id="ziAIK8e2hK0k-ULHB1On-1" value="Zone-1" style="shape=mxgraph.ibm.box;prType=zone;fontStyle=0;verticalAlign=top;align=left;spacingLeft=32;spacingTop=4;fillColor=none;rounded=0;whiteSpace=wrap;html=1;strokeColor=#7A91A5;strokeWidth=1;dashed=0;container=1;spacing=-4;collapsible=0;expand=0;recursiveResize=0;shadow=0;fontColor=#ffffff;gradientColor=#ffffff;" vertex="1" parent="-SGei8ItMMGrmaWpwYBP-248">
          <mxGeometry x="10" y="30" width="350" height="580" as="geometry" />
        </mxCell>
        <object label="Dev &#xa;Load Balancer" placeholders="1" fgdfgdfgd="" id="ziAIK8e2hK0k-ULHB1On-5">
          <mxCell style="aspect=fixed;perimeter=ellipsePerimeter;align=left;shadow=0;dashed=0;fontColor=#000000;labelBackgroundColor=none;fontSize=12;spacingTop=-58;image;image=img/lib/ibm/vpc/LoadBalancer.svg;strokeColor=#999999;fillColor=none;opacity=80;labelBorderColor=none;whiteSpace=wrap;textDirection=ltr;verticalAlign=top;horizontal=1;direction=east;labelPosition=right;verticalLabelPosition=bottom;spacing=10;spacingBottom=6;spacingRight=5;" vertex="1" parent="ziAIK8e2hK0k-ULHB1On-1">
            <mxGeometry x="120" y="20" width="80" height="80" as="geometry" />
          </mxCell>
        </object>
        <mxCell id="ziAIK8e2hK0k-ULHB1On-14" value="" style="group" vertex="1" connectable="0" parent="ziAIK8e2hK0k-ULHB1On-1">
          <mxGeometry x="10" y="168" width="330" height="150" as="geometry" />
        </mxCell>
        <mxCell id="ziAIK8e2hK0k-ULHB1On-15" value="" style="group" vertex="1" connectable="0" parent="ziAIK8e2hK0k-ULHB1On-14">
          <mxGeometry x="3" y="-2" width="330" height="150" as="geometry" />
        </mxCell>
        <mxCell id="ziAIK8e2hK0k-ULHB1On-16" value="&lt;font color=&quot;#000000&quot;&gt;Web Subnet-1&lt;/font&gt;" style="shape=mxgraph.ibm.box;prType=subnet;fontStyle=0;verticalAlign=top;align=left;spacingLeft=32;spacingTop=4;fillColor=#E6F0E2;rounded=0;whiteSpace=wrap;html=1;strokeColor=#00882B;strokeWidth=1;dashed=0;container=1;spacing=-4;collapsible=0;expand=0;recursiveResize=0;fontSize=12;fontColor=#FFFFFF;" vertex="1" parent="ziAIK8e2hK0k-ULHB1On-15">
          <mxGeometry width="330" height="150" as="geometry" />
        </mxCell>
        <mxCell id="ziAIK8e2hK0k-ULHB1On-31" value="" style="fontStyle=0;verticalAlign=top;align=center;spacingTop=-2;fillColor=none;rounded=0;whiteSpace=wrap;html=1;strokeColor=#FF0000;strokeWidth=2;dashed=1;container=1;collapsible=0;expand=0;recursiveResize=0;shadow=0;labelBackgroundColor=none;labelBorderColor=none;fontColor=#000000;" vertex="1" parent="ziAIK8e2hK0k-ULHB1On-15">
          <mxGeometry x="10" y="30" width="310" height="115.16" as="geometry" />
        </mxCell>
        <mxCell id="ziAIK8e2hK0k-ULHB1On-18" value="Dev VSI -1" style="aspect=fixed;perimeter=ellipsePerimeter;html=1;align=center;shadow=0;dashed=0;fontColor=#4277BB;labelBackgroundColor=#ffffff;fontSize=12;spacingTop=3;image;image=img/lib/ibm/vpc/Instance.svg;strokeColor=#0000FF;fillColor=#B3B3B3;" vertex="1" parent="ziAIK8e2hK0k-ULHB1On-31">
          <mxGeometry x="7.0000000000000036" y="19.59" width="83.63515151515152" height="66.91151515151516" as="geometry" />
        </mxCell>
        <mxCell id="ziAIK8e2hK0k-ULHB1On-93" value="FIP" style="aspect=fixed;perimeter=ellipsePerimeter;html=1;align=center;shadow=0;dashed=0;fontColor=#4277BB;labelBackgroundColor=#ffffff;fontSize=10;spacingTop=2;image;image=img/lib/ibm/vpc/FloatingIP.svg;labelBorderColor=none;strokeColor=#000000;fillColor=none;horizontal=1;verticalAlign=bottom;labelPosition=center;verticalLabelPosition=top;spacing=-20;" vertex="1" parent="ziAIK8e2hK0k-ULHB1On-31">
          <mxGeometry x="78.63999999999999" y="26.5" width="60" height="60" as="geometry" />
        </mxCell>
        <mxCell id="ziAIK8e2hK0k-ULHB1On-94" value="FIP" style="aspect=fixed;perimeter=ellipsePerimeter;html=1;align=center;shadow=0;dashed=0;fontColor=#4277BB;labelBackgroundColor=#ffffff;fontSize=10;spacingTop=2;image;image=img/lib/ibm/vpc/FloatingIP.svg;labelBorderColor=none;strokeColor=#000000;fillColor=none;horizontal=1;verticalAlign=bottom;labelPosition=center;verticalLabelPosition=top;spacing=-20;" vertex="1" parent="ziAIK8e2hK0k-ULHB1On-31">
          <mxGeometry x="228" y="24.39" width="69.24" height="69.24" as="geometry" />
        </mxCell>
        <mxCell id="ziAIK8e2hK0k-ULHB1On-22" value="UAT VSI-1" style="aspect=fixed;perimeter=ellipsePerimeter;html=1;align=center;shadow=0;dashed=0;fontColor=#4277BB;labelBackgroundColor=#ffffff;fontSize=12;spacingTop=3;image;image=img/lib/ibm/vpc/Instance.svg;strokeColor=#0000FF;fillColor=#B3B3B3;" vertex="1" parent="ziAIK8e2hK0k-ULHB1On-15">
          <mxGeometry x="167.00000000000003" y="52" width="82.23515151515153" height="65.79151515151517" as="geometry" />
        </mxCell>
        <mxCell id="ziAIK8e2hK0k-ULHB1On-78" value="Dev DB Subnet" style="shape=mxgraph.ibm.box;prType=subnet;fontStyle=0;verticalAlign=top;align=left;spacingLeft=32;spacingTop=4;fillColor=#E6F0E2;rounded=0;whiteSpace=wrap;html=1;strokeColor=#00882B;strokeWidth=1;dashed=0;container=1;spacing=-4;collapsible=0;expand=0;recursiveResize=0;shadow=0;labelBackgroundColor=none;labelBorderColor=none;fontColor=#000000;" vertex="1" parent="ziAIK8e2hK0k-ULHB1On-1">
          <mxGeometry x="25" y="369" width="300" height="200" as="geometry" />
        </mxCell>
        <mxCell id="ziAIK8e2hK0k-ULHB1On-49" value="Dev Mysql DB" style="fontStyle=0;verticalAlign=top;align=center;spacingTop=-2;fillColor=none;rounded=0;whiteSpace=wrap;html=1;strokeColor=#FF0000;strokeWidth=2;dashed=1;container=1;collapsible=0;expand=0;recursiveResize=0;shadow=0;labelBackgroundColor=none;labelBorderColor=none;fontColor=#000000;" vertex="1" parent="ziAIK8e2hK0k-ULHB1On-78">
          <mxGeometry x="10" y="30" width="280" height="160" as="geometry" />
        </mxCell>
        <mxCell id="ziAIK8e2hK0k-ULHB1On-53" value="" style="aspect=fixed;perimeter=ellipsePerimeter;html=1;align=center;shadow=0;dashed=0;fontColor=#4277BB;labelBackgroundColor=#ffffff;fontSize=12;spacingTop=3;image;image=img/lib/ibm/data/data_services.svg;labelBorderColor=none;strokeColor=#000000;fillColor=none;" vertex="1" parent="ziAIK8e2hK0k-ULHB1On-49">
          <mxGeometry x="45" y="31" width="120" height="120" as="geometry" />
        </mxCell>
        <mxCell id="ziAIK8e2hK0k-ULHB1On-91" value="FIP" style="aspect=fixed;perimeter=ellipsePerimeter;html=1;align=center;shadow=0;dashed=0;fontColor=#4277BB;labelBackgroundColor=#ffffff;fontSize=10;spacingTop=2;image;image=img/lib/ibm/vpc/FloatingIP.svg;labelBorderColor=none;strokeColor=#000000;fillColor=none;horizontal=1;verticalAlign=bottom;labelPosition=center;verticalLabelPosition=top;spacing=-20;" vertex="1" parent="ziAIK8e2hK0k-ULHB1On-49">
          <mxGeometry x="165" y="61" width="60" height="60" as="geometry" />
        </mxCell>
        <mxCell id="ziAIK8e2hK0k-ULHB1On-85" value="" style="endArrow=classic;startArrow=classic;html=1;rounded=0;fontColor=#000000;strokeWidth=2;" edge="1" parent="ziAIK8e2hK0k-ULHB1On-1">
          <mxGeometry width="50" height="50" relative="1" as="geometry">
            <mxPoint x="174.44" y="374" as="sourcePoint" />
            <mxPoint x="174.44" y="314" as="targetPoint" />
          </mxGeometry>
        </mxCell>
        <mxCell id="ziAIK8e2hK0k-ULHB1On-3" value="" style="aspect=fixed;perimeter=ellipsePerimeter;html=1;align=center;shadow=0;dashed=0;fontColor=#4277BB;labelBackgroundColor=#ffffff;fontSize=12;spacingTop=3;image;image=img/lib/ibm/users/user.svg;strokeColor=#999999;fillColor=none;opacity=80;imageBorder=none;" vertex="1" parent="1">
          <mxGeometry x="30" y="10" width="110" height="110" as="geometry" />
        </mxCell>
        <mxCell id="ziAIK8e2hK0k-ULHB1On-4" value="" style="aspect=fixed;perimeter=ellipsePerimeter;html=1;align=center;shadow=0;dashed=0;fontColor=#4277BB;labelBackgroundColor=none;fontSize=12;spacingTop=3;image;image=img/lib/ibm/vpc/Internet.svg;strokeColor=#999999;fillColor=none;opacity=70;imageBorder=none;" vertex="1" parent="1">
          <mxGeometry x="320" y="10" width="150" height="150" as="geometry" />
        </mxCell>
        <mxCell id="ziAIK8e2hK0k-ULHB1On-58" value="" style="html=1;labelBackgroundColor=#ffffff;endArrow=classic;endFill=1;endSize=6;jettySize=auto;orthogonalLoop=1;strokeWidth=2;fontSize=14;rounded=0;fontColor=#000000;exitX=0.995;exitY=0.622;exitDx=0;exitDy=0;entryX=0.004;entryY=0.449;entryDx=0;entryDy=0;exitPerimeter=0;entryPerimeter=0;" edge="1" parent="1" source="ziAIK8e2hK0k-ULHB1On-3" target="ziAIK8e2hK0k-ULHB1On-4">
          <mxGeometry width="60" height="60" relative="1" as="geometry">
            <mxPoint x="849" y="80" as="sourcePoint" />
            <mxPoint x="849" y="150" as="targetPoint" />
          </mxGeometry>
        </mxCell>
        <mxCell id="ziAIK8e2hK0k-ULHB1On-71" value="COS&amp;nbsp;&lt;br&gt;Object Storage" style="aspect=fixed;perimeter=ellipsePerimeter;html=1;align=center;shadow=0;dashed=0;fontColor=#4277BB;labelBackgroundColor=#ffffff;fontSize=12;spacingTop=3;image;image=img/lib/ibm/vpc/ObjectStorage.svg;labelBorderColor=none;strokeColor=#000000;fillColor=none;" vertex="1" parent="1">
          <mxGeometry x="800" y="300" width="120" height="120" as="geometry" />
        </mxCell>
        <mxCell id="ziAIK8e2hK0k-ULHB1On-101" value="" style="edgeStyle=elbowEdgeStyle;rounded=0;elbow=vertical;html=1;labelBackgroundColor=#ffffff;startArrow=classic;startFill=1;startSize=6;endArrow=classic;endFill=1;endSize=6;jettySize=auto;orthogonalLoop=1;strokeWidth=1;fontSize=14;fontColor=#000000;entryX=0.417;entryY=0;entryDx=0;entryDy=0;entryPerimeter=0;exitX=1;exitY=0.5;exitDx=0;exitDy=0;" edge="1" parent="1" source="ziAIK8e2hK0k-ULHB1On-4" target="ziAIK8e2hK0k-ULHB1On-71">
          <mxGeometry width="60" height="60" relative="1" as="geometry">
            <mxPoint x="490" y="85" as="sourcePoint" />
            <mxPoint x="600" y="-10" as="targetPoint" />
            <Array as="points">
              <mxPoint x="690" y="80" />
            </Array>
          </mxGeometry>
        </mxCell>
        <mxCell id="ziAIK8e2hK0k-ULHB1On-102" value="Text" style="edgeLabel;html=1;align=center;verticalAlign=middle;resizable=0;points=[];fontSize=10;fontColor=#000000;" vertex="1" connectable="0" parent="ziAIK8e2hK0k-ULHB1On-101">
          <mxGeometry x="0.6705" y="1" relative="1" as="geometry">
            <mxPoint as="offset" />
          </mxGeometry>
        </mxCell>
        <mxCell id="ziAIK8e2hK0k-ULHB1On-103" value="" style="edgeStyle=elbowEdgeStyle;rounded=0;elbow=vertical;html=1;labelBackgroundColor=#ffffff;startArrow=classic;startFill=1;startSize=6;endArrow=classic;endFill=1;endSize=6;jettySize=auto;orthogonalLoop=1;strokeWidth=1;fontSize=14;fontColor=#000000;exitX=0.5;exitY=0;exitDx=0;exitDy=0;" edge="1" parent="1" source="ziAIK8e2hK0k-ULHB1On-5" target="ziAIK8e2hK0k-ULHB1On-4">
          <mxGeometry width="60" height="60" relative="1" as="geometry">
            <mxPoint x="260" y="150" as="sourcePoint" />
            <mxPoint x="320" y="90" as="targetPoint" />
            <Array as="points">
              <mxPoint x="230" y="110" />
            </Array>
          </mxGeometry>
        </mxCell>
        <mxCell id="ziAIK8e2hK0k-ULHB1On-104" value="" style="edgeStyle=elbowEdgeStyle;rounded=0;elbow=vertical;html=1;labelBackgroundColor=#ffffff;startArrow=classic;startFill=1;startSize=6;endArrow=classic;endFill=1;endSize=6;jettySize=auto;orthogonalLoop=1;strokeWidth=1;fontSize=14;fontColor=#000000;exitX=0.471;exitY=0.017;exitDx=0;exitDy=0;exitPerimeter=0;" edge="1" parent="1">
          <mxGeometry width="60" height="60" relative="1" as="geometry">
            <mxPoint x="560.1399999999999" y="274.86" as="sourcePoint" />
            <mxPoint x="465.71067811865487" y="115" as="targetPoint" />
            <Array as="points">
              <mxPoint x="500" y="115" />
              <mxPoint x="520" y="135" />
            </Array>
          </mxGeometry>
        </mxCell>
      </root>
    </mxGraphModel>
  </diagram>
</mxfile>
